<svg width="148" height="135" viewBox="0 0 148 135" fill="none" xmlns="http://www.w3.org/2000/svg">
<path fill-rule="evenodd" clip-rule="evenodd" d="M14.6373 2.591C11.0977 -0.492629 5.72849 -0.122984 2.64486 3.41662C1.18213 5.09565 0.496425 7.18636 0.557508 9.24951C0.5551 9.33272 0.553887 9.41623 0.553887 9.50003L0.553887 126.5L0.553887 135H17.5539V126.5V27.6782L70.8747 74.1301C74.2118 77.132 79.3532 77.0273 82.5644 73.816L140.87 15.5104C144.189 12.191 144.189 6.80907 140.87 3.48961C137.55 0.17016 132.169 0.170166 128.849 3.48963L76.155 56.1839L14.6373 2.591ZM51.4363 74.9214L78.7828 97.2958L131.07 45.4636C131.071 45.4623 131.072 45.461 131.074 45.4597C132.511 42.8039 135.322 41 138.554 41C143.248 41 147.054 44.8056 147.054 49.5V126.5V135H130.054V126.5V70.4079L85.538 114.537C83.8172 116.243 81.5507 117.062 79.3059 116.996C77.3289 117.056 75.3223 116.429 73.6713 115.079L40.6713 88.0787C37.038 85.106 36.5025 79.7508 39.4752 76.1176C42.4479 72.4843 47.8031 71.9487 51.4363 74.9214Z" fill="url(#paint0_linear_46_91)"/>
<defs>
<linearGradient id="paint0_linear_46_91" x1="73.8038" y1="0.499878" x2="73.8038" y2="135" gradientUnits="userSpaceOnUse">
<stop stop-color="#091F3F"/>
<stop offset="1" stop-color="#527895"/>
</linearGradient>
</defs>
</svg>
